<svg xmlns="http://www.w3.org/2000/svg" viewBox="0 0 467 290">
    <g fill="#2F557F" fill-rule="evenodd">
        <path d="M39.71 250.955v-.896c0-7.441-2.015-11.582-8.673-11.582-5.315 0-7.945 4.533-7.945 11.638 0 7.162 2.63 11.303 8.001 11.303 6.323 0 8.617-3.469 8.617-10.463M18 250.004c0-10.296 4.924-15.611 12.365-15.611 4.645 0 7.443 1.958 9.288 4.419h.336c-.111-.951-.336-3.3-.336-4.419V224.32l4.925-1.902v42.525h-3.972l-.728-4.028h-.225c-1.79 2.573-4.643 4.588-9.343 4.588-7.443 0-12.31-5.204-12.31-15.499M78.595 264.943h-4.028l-.728-3.973h-.223c-1.96 3.134-5.652 4.533-9.513 4.533-7.218 0-10.911-3.302-10.911-10.912v-19.639h4.98v19.303c0 4.813 2.126 7.163 6.658 7.163 6.659 0 8.84-3.86 8.84-10.855v-15.61h4.925v29.99zM110.036 265.503c-4.477 0-8.449-.672-10.967-1.902l1.567-4.141c1.734.783 5.372 1.679 9.624 1.679 5.931 0 9.008-2.462 9.008-6.435 0-3.917-2.182-5.596-9.4-8.225-6.826-2.462-10.295-5.652-10.295-11.863 0-6.322 5.203-10.183 12.757-10.183 4.364 0 8.002.895 11.023 2.238l-1.623 4.309c-2.798-1.175-6.043-2.126-9.51-2.126-4.982 0-7.555 2.349-7.555 5.818 0 4.029 2.237 5.65 8.728 8.058 7.05 2.629 10.912 5.259 10.912 11.526 0 7.106-5.54 11.247-14.269 11.247M134.653 246.982h15.275c-.055-5.092-2.294-8.562-7.273-8.562-4.7 0-7.498 3.19-8.002 8.562m20.424.951v2.965h-20.535c.168 6.771 3.581 10.408 9.567 10.408 2.91 0 5.876-.559 8.226-1.455l1.398 3.693c-3.077 1.343-5.763 1.96-9.848 1.96-8.56 0-14.435-5.317-14.435-15.333 0-9.848 5.315-15.779 13.261-15.779 7.666 0 12.366 5.371 12.366 13.541M166.49 248.94v.951c0 7.386 2.013 11.527 8.56 11.527 5.427 0 8.001-4.869 8.001-11.582 0-6.827-2.574-11.303-8.114-11.303-6.098 0-8.337 3.413-8.448 10.407m21.654.951c0 10.24-4.925 15.611-12.366 15.611-4.644 0-7.554-2.014-9.288-4.364h-.336c.111 1.287.336 3.526.336 4.924v12.31h-4.924v-43.42h4.028l.671 4.085h.225c1.79-2.575 4.476-4.645 9.344-4.645 7.385 0 12.31 5.148 12.31 15.5M206.717 260.747l1.343 3.524c-1.064.672-3.19 1.232-5.484 1.232-4.7 0-8.785-2.015-8.785-9.288v-26.299l4.925-1.847v6.883h8.673v3.805h-8.673v17.345c0 3.637 1.958 5.373 4.699 5.373 1.119 0 2.63-.392 3.302-.728M212.478 264.943h4.924v-29.991h-4.924v29.991zm5.372-38.104c0 2.126-1.343 3.133-2.854 3.133-1.623 0-2.91-1.007-2.91-3.133 0-2.183 1.287-3.134 2.91-3.134 1.511 0 2.854.951 2.854 3.134zM240.901 230.364v.671H237.6c-2.573-2.015-6.658-6.322-7.945-8.393v-.559h5.875c1.231 2.517 3.637 6.211 5.372 8.281m-11.583 16.618h15.275c-.055-5.092-2.294-8.56-7.273-8.56-4.7 0-7.498 3.188-8.002 8.56m20.424.951v2.965h-20.535c.168 6.771 3.581 10.408 9.567 10.408 2.91 0 5.876-.559 8.226-1.455l1.398 3.694c-3.077 1.342-5.763 1.958-9.848 1.958-8.56 0-14.435-5.316-14.435-15.33 0-9.85 5.315-15.78 13.261-15.78 7.666 0 12.366 5.37 12.366 13.54M299.259 245.415v19.528h-4.868V245.64c0-4.701-1.958-7.107-6.1-7.107-5.818 0-8.112 3.469-8.112 9.848v16.562h-4.868V245.64c0-4.701-1.96-7.107-6.156-7.107-6.042 0-8 3.861-8 10.855v15.555h-4.924v-29.991h3.972l.727 4.085h.28c1.847-3.134 5.26-4.644 8.84-4.644 4.589 0 7.723 1.623 9.178 5.036h.279c2.015-3.413 5.707-5.036 9.624-5.036 6.77 0 10.128 3.3 10.128 11.022M310.95 246.982h15.274c-.056-5.092-2.294-8.562-7.274-8.562-4.7 0-7.498 3.19-8 8.562m20.422.951v2.965h-20.535c.168 6.771 3.581 10.408 9.568 10.408 2.91 0 5.875-.559 8.226-1.455l1.398 3.693c-3.077 1.343-5.764 1.96-9.848 1.96-8.56 0-14.436-5.317-14.436-15.333 0-9.848 5.315-15.779 13.261-15.779 7.666 0 12.366 5.371 12.366 13.541M347.65 271.267c2.351-1.12 4.03-3.021 4.03-8.45v-37.825h5.034v37.826c0 6.994-2.349 10.35-7.44 12.757l-1.624-4.308zM377.64 261.418c6.044 0 8.785-4.42 8.785-11.526 0-7.107-2.741-11.36-8.841-11.36-6.098 0-8.728 4.253-8.728 11.36 0 7.106 2.685 11.526 8.785 11.526m-.112 4.085c-7.946 0-13.765-5.651-13.765-15.611 0-9.904 5.315-15.5 13.933-15.5 8.113 0 13.82 5.596 13.82 15.5 0 9.96-5.427 15.61-13.988 15.61M423.24 264.943h-4.028l-.728-3.973h-.223c-1.959 3.134-5.652 4.533-9.513 4.533-7.218 0-10.91-3.302-10.91-10.912v-19.639h4.98v19.303c0 4.813 2.125 7.163 6.657 7.163 6.66 0 8.841-3.86 8.841-10.855v-15.61h4.924v29.99zM449.144 234.728l-.615 4.532c-.951-.223-2.24-.39-3.245-.39-4.645 0-8.73 4.027-8.73 10.07v16.003h-4.923v-29.99h4.029l.559 5.482h.224c1.902-3.302 4.979-6.043 9.177-6.043 1.119 0 2.517.111 3.524.336"/>
        <g>
            <path d="M45.054 152.683c-1.4 2.07-5.372 6.379-8.002 8.393h-3.245v-.671c1.623-2.071 4.028-5.764 5.315-8.282h5.932v.56zm-19.528 52.26v-39.95h22.326v4.419h-17.29v12.479h14.995v4.364H30.562v14.269h18.52l-1.678 4.42H25.526zM70.733 184.52c0-4.365-2.07-6.547-6.154-6.547-4.085 0-6.156 2.238-6.156 6.603 0 4.14 2.071 6.211 6.211 6.211 4.085 0 6.1-2.126 6.1-6.267m3.356 24.004c0-1.623-.447-2.686-1.342-3.245-.952-.56-2.743-.84-5.428-.84h-5.148c-4.196 0-6.266 1.791-6.266 5.428 0 3.133 2.462 4.756 7.386 4.756 7.217 0 10.798-2.014 10.798-6.099m-22.884 1.511c0-3.86 2.181-6.324 6.546-7.386-1.735-.84-2.629-2.294-2.629-4.196 0-2.07 1.23-3.806 3.636-5.26-3.413-1.4-5.204-4.98-5.204-8.449 0-6.995 4.365-10.352 11.192-10.352 1.566 0 2.91.168 4.084.56h10.351l-1.455 3.804h-3.916c1.175 1.567 1.79 3.526 1.79 5.82 0 6.211-4.532 9.624-11.022 9.624-1.008 0-1.79-.056-2.35-.168-1.848 1.007-2.742 2.238-2.742 3.636 0 1.511 1.511 2.295 4.42 2.295H69c6.043 0 9.792 2.742 9.792 8.114 0 6.881-5.148 10.295-15.444 10.295-6.994 0-12.14-2.407-12.14-8.337M83.936 204.943V164.32l4.924-1.902v42.525zM97.252 204.943h4.924v-29.991h-4.924v29.991zm5.371-38.104c0 2.126-1.343 3.133-2.853 3.133-1.624 0-2.911-1.007-2.911-3.133 0-2.183 1.287-3.134 2.911-3.134 1.51 0 2.853.951 2.853 3.134zM118.121 205.503c-4.197 0-7.106-.672-9.4-1.902l1.454-3.805c1.96.839 5.204 1.734 8.057 1.734 4.981 0 7.107-1.734 7.107-4.421 0-2.237-1.51-3.581-7.386-5.818-5.819-2.238-9.289-4.03-9.289-8.953 0-5.092 4.532-7.945 11.247-7.945 3.637 0 6.771.783 9.568 2.014l-1.51 3.973c-2.575-1.12-5.484-1.96-8.394-1.96-4.028 0-6.21 1.4-6.21 3.639 0 2.517 1.958 3.524 7.721 5.707 5.708 2.126 9.01 4.085 9.01 8.896 0 5.82-4.646 8.84-11.975 8.84M139.605 186.982h15.275c-.055-5.092-2.294-8.562-7.273-8.562-4.7 0-7.499 3.19-8.003 8.562m20.424.951v2.965h-20.535c.168 6.771 3.581 10.408 9.567 10.408 2.91 0 5.876-.559 8.226-1.455l1.399 3.693c-3.078 1.343-5.764 1.96-9.849 1.96-8.56 0-14.435-5.317-14.435-15.333 0-9.848 5.315-15.779 13.261-15.779 7.666 0 12.367 5.371 12.367 13.541M194.883 176.016c-.335-.896-1.511-4.59-1.902-5.987-.56 2.294-1.287 4.7-1.735 5.987l-4.532 12.086h12.646l-4.477-12.086zm5.987 16.562h-15.835l-4.756 12.366h-5.091l15.61-40.12h4.533l15.555 40.12h-5.203l-4.813-12.366zM235.167 190.955v-.896c0-7.441-2.015-11.582-8.673-11.582-5.315 0-7.945 4.533-7.945 11.638 0 7.162 2.63 11.303 8.001 11.303 6.323 0 8.617-3.469 8.617-10.463m-21.71-.951c0-10.296 4.924-15.611 12.365-15.611 4.645 0 7.443 1.958 9.288 4.419h.336c-.111-.951-.336-3.3-.336-4.419V164.32l4.925-1.902v42.525h-3.972l-.728-4.028h-.225c-1.79 2.573-4.643 4.588-9.343 4.588-7.443 0-12.31-5.204-12.31-15.499M244.228 174.952h5.26l6.38 17.682c.894 2.462 2.07 6.098 2.405 7.945h.224c.392-1.847 1.678-5.54 2.518-7.945l6.379-17.682h5.26l-11.416 29.991h-5.651l-11.358-29.99zM279.813 186.982h15.274c-.054-5.092-2.293-8.562-7.272-8.562-4.7 0-7.499 3.19-8.002 8.562m20.423.951v2.965h-20.534c.167 6.771 3.58 10.408 9.567 10.408 2.91 0 5.875-.559 8.226-1.455l1.397 3.693c-3.077 1.343-5.762 1.96-9.847 1.96-8.56 0-14.436-5.317-14.436-15.333 0-9.848 5.316-15.779 13.262-15.779 7.666 0 12.365 5.371 12.365 13.541M332.016 185.415v19.528h-4.868v-19.192c0-4.812-2.126-7.218-6.715-7.218-6.658 0-8.784 3.861-8.784 10.855v15.555h-4.924v-29.991h3.973l.726 4.085h.28c1.958-3.134 5.652-4.644 9.457-4.644 7.162 0 10.855 3.3 10.855 11.022M352.044 200.747l1.343 3.524c-1.064.672-3.19 1.232-5.484 1.232-4.7 0-8.785-2.015-8.785-9.288v-26.299l4.925-1.847v6.883h8.673v3.805h-8.673v17.345c0 3.637 1.958 5.373 4.699 5.373 1.119 0 2.63-.392 3.302-.728M357.805 204.943h4.924v-29.991h-4.924v29.991zm5.372-38.104c0 2.126-1.343 3.133-2.854 3.133-1.623 0-2.91-1.007-2.91-3.133 0-2.183 1.287-3.134 2.91-3.134 1.511 0 2.854.951 2.854 3.134zM378.675 205.503c-4.197 0-7.106-.672-9.4-1.902l1.454-3.805c1.959.839 5.204 1.734 8.057 1.734 4.98 0 7.107-1.734 7.107-4.421 0-2.237-1.511-3.581-7.386-5.818-5.82-2.238-9.29-4.03-9.29-8.953 0-5.092 4.533-7.945 11.248-7.945 3.637 0 6.77.783 9.568 2.014l-1.51 3.973c-2.575-1.12-5.484-1.96-8.394-1.96-4.028 0-6.211 1.4-6.211 3.639 0 2.517 1.959 3.524 7.722 5.707 5.708 2.126 9.009 4.085 9.009 8.896 0 5.82-4.645 8.84-11.974 8.84M408.495 200.747l1.344 3.524c-1.064.672-3.19 1.232-5.485 1.232-4.699 0-8.784-2.015-8.784-9.288v-26.299l4.924-1.847v6.883h8.673v3.805h-8.673v17.345c0 3.637 1.958 5.373 4.7 5.373 1.12 0 2.63-.392 3.301-.728M417.782 186.982h15.275c-.056-5.092-2.294-8.562-7.274-8.562-4.7 0-7.498 3.19-8 8.562m20.422.951v2.965H417.67c.168 6.771 3.581 10.408 9.568 10.408 2.91 0 5.875-.559 8.226-1.455l1.398 3.693c-3.077 1.343-5.764 1.96-9.848 1.96-8.56 0-14.436-5.317-14.436-15.333 0-9.848 5.315-15.779 13.261-15.779 7.666 0 12.366 5.371 12.366 13.541M444.749 164.488h1.119l1.287 3.47 1.287-3.47h1.119v4.421h-.783V165.496h-.056l-1.231 3.413h-.672l-1.23-3.413h-.057v3.413h-.783v-4.42zm-2.573.672h-1.287v-.672h3.413v.672h-1.343v3.75h-.783v-3.75z"/>
        </g>
        <path d="M301.421 125.672h1.12l1.286 3.47 1.287-3.47h1.12v4.42h-.784v-3.413h-.056l-1.23 3.414h-.673l-1.23-3.414h-.057V130.093h-.783v-4.421zm-2.574.672h-1.287v-.672h3.413v.672h-1.343v3.749h-.783v-3.75zm-63.75 9.954c0 .54.62.543.732 0 .823-3.997 2.076-6.662 4.033-9.25l-4.4.004a.363.363 0 0 0-.365.363v8.883zm32.32-55.485c-.18-.584-.687-.623-.682-.011.05 5.779-1.612 10.745-12.16 21.294l-8.344 8.337c-3.797 3.797-7.21 7.263-9.229 10.729h8.24l.974-.975 11.97-11.983c9.97-9.97 11.36-20.513 9.231-27.391zm-11.187 35.25l-9.999 10.006c-6.052 6.053-11.134 11.268-11.134 16.97l.006 1.589c0 .43.536.499.701.048 1.868-5.106 8.112-10.556 19.564-8.624 0 0 49.89 8.62 50.31 8.658.487.043.728-.437.414-.81-.189-.225-23.22-23.255-23.22-23.255l-26.642-4.582zm-36.093 10.986a.364.364 0 0 1-.364-.364v-5.162c0-.202.163-.364.364-.364l8.732.002a.364.364 0 0 0 .364-.364c-.023-4.637-3.519-7.787-17.523-5.35l-30.24 5.198s-23.032 23.03-23.22 23.255c-.315.373-.074.853.413.81.42-.037 50.31-8.658 50.31-8.658 11.452-1.932 17.696 3.518 19.564 8.624.165.45.702.383.702-.048l.001-17.216c0-.2-.163-.363-.364-.363h-8.739zm-13.939-72.152c-9.969 9.968-11.359 20.514-9.23 27.392.18.584.686.623.681.01-.05-5.778 1.612-10.744 12.161-21.293l22.74-22.733c6.052-6.053 11.134-11.268 11.134-16.971v-8.896c0-.541-.62-.543-.732 0-1.496 7.26-4.4 10.124-10.387 16.112l-26.367 26.379zm37.508-17.973v-8.956c0-.541-.62-.543-.732 0-1.496 7.26-4.392 10.169-10.38 16.157l-23.883 23.862c-11.59 11.59-13.596 22.808-7.7 30.016.392.482.815.193.558-.387-3.897-8.818 5.45-18.168 9.898-22.617l21.104-21.104c6.053-6.053 11.135-11.268 11.135-16.971zm-34.34 46.045c-11.59 11.59-6.26 22.785.5 25.867.593.27.828-.211.375-.603-5.422-4.698-3.776-12.598 3.042-19.415l19.264-19.265c6.053-6.052 11.134-11.267 11.134-16.97v-8.895c0-.541-.62-.543-.732 0-1.495 7.258-4.393 10.11-10.38 16.098l-23.203 23.183zm25.71 28.81v8.957c0 .54.62.543.731 0 1.496-7.258 4.392-10.168 10.38-16.156l9.486-9.467c11.591-11.59 13.596-22.806 7.701-30.015-.393-.481-.816-.193-.559.387 3.897 8.818-5.449 18.167-9.898 22.618l-6.707 6.708c-6.053 6.05-11.135 11.266-11.135 16.969zm11.137-22.861c-5.988 5.987-8.886 8.84-10.38 16.099-.113.544-.733.542-.733 0v-8.895c0-5.703 5.081-10.918 11.133-16.971l4.868-4.867c6.818-6.818 8.464-14.717 3.042-19.415-.453-.392-.218-.874.376-.603 6.76 3.08 12.09 14.275.5 25.867l-8.806 8.785z"/>
    </g>
</svg>
